<mxfile host="app.diagrams.net" modified="2022-02-23T07:12:03.221Z" agent="5.0 (Windows NT 10.0; Win64; x64) AppleWebKit/537.36 (KHTML, like Gecko) Chrome/98.0.4758.102 Safari/537.36 Edg/98.0.1108.56" etag="8bMomUOalvg6d2uXZ-Sq" version="16.6.1" type="github">
  <diagram id="H-XeCE0ZFacExJqMWN6Y" name="Page-1">
    <mxGraphModel dx="1422" dy="762" grid="1" gridSize="10" guides="1" tooltips="1" connect="1" arrows="1" fold="1" page="1" pageScale="1" pageWidth="827" pageHeight="1169" math="0" shadow="0">
      <root>
        <mxCell id="0" />
        <mxCell id="1" parent="0" />
        <mxCell id="NiBP0WeMa_dFV4ms7JBB-56" value="首页" style="swimlane;childLayout=stackLayout;resizeParent=1;resizeParentMax=0;startSize=20;" vertex="1" parent="1">
          <mxGeometry x="44" y="40" width="680" height="540" as="geometry" />
        </mxCell>
        <mxCell id="NiBP0WeMa_dFV4ms7JBB-57" value="体验者" style="swimlane;startSize=20;" vertex="1" parent="NiBP0WeMa_dFV4ms7JBB-56">
          <mxGeometry y="20" width="110" height="520" as="geometry">
            <mxRectangle y="20" width="30" height="520" as="alternateBounds" />
          </mxGeometry>
        </mxCell>
        <mxCell id="NiBP0WeMa_dFV4ms7JBB-58" value="用户" style="shape=umlActor;verticalLabelPosition=bottom;verticalAlign=top;html=1;outlineConnect=0;" vertex="1" parent="NiBP0WeMa_dFV4ms7JBB-57">
          <mxGeometry x="19" y="45" width="20" height="30" as="geometry" />
        </mxCell>
        <mxCell id="NiBP0WeMa_dFV4ms7JBB-88" value="用户" style="shape=umlActor;verticalLabelPosition=bottom;verticalAlign=top;html=1;outlineConnect=0;" vertex="1" parent="NiBP0WeMa_dFV4ms7JBB-57">
          <mxGeometry x="19" y="130" width="20" height="30" as="geometry" />
        </mxCell>
        <mxCell id="NiBP0WeMa_dFV4ms7JBB-96" value="用户" style="shape=umlActor;verticalLabelPosition=bottom;verticalAlign=top;html=1;outlineConnect=0;" vertex="1" parent="NiBP0WeMa_dFV4ms7JBB-57">
          <mxGeometry x="19" y="240" width="20" height="30" as="geometry" />
        </mxCell>
        <mxCell id="NiBP0WeMa_dFV4ms7JBB-59" value="主界面" style="swimlane;startSize=20;" vertex="1" parent="NiBP0WeMa_dFV4ms7JBB-56">
          <mxGeometry x="110" y="20" width="170" height="520" as="geometry">
            <mxRectangle x="110" y="20" width="30" height="520" as="alternateBounds" />
          </mxGeometry>
        </mxCell>
        <mxCell id="NiBP0WeMa_dFV4ms7JBB-60" value="“选择城市”按钮" style="whiteSpace=wrap;html=1;verticalAlign=top;" vertex="1" parent="NiBP0WeMa_dFV4ms7JBB-59">
          <mxGeometry x="41" y="42" width="100" height="35" as="geometry" />
        </mxCell>
        <mxCell id="NiBP0WeMa_dFV4ms7JBB-63" value="" style="endArrow=classic;html=1;rounded=0;exitX=0.5;exitY=0.5;exitDx=0;exitDy=0;exitPerimeter=0;" edge="1" parent="NiBP0WeMa_dFV4ms7JBB-56" source="NiBP0WeMa_dFV4ms7JBB-58" target="NiBP0WeMa_dFV4ms7JBB-60">
          <mxGeometry width="50" height="50" relative="1" as="geometry">
            <mxPoint x="70" y="325" as="sourcePoint" />
            <mxPoint x="120" y="275" as="targetPoint" />
          </mxGeometry>
        </mxCell>
        <mxCell id="NiBP0WeMa_dFV4ms7JBB-64" value="点击" style="edgeLabel;html=1;align=center;verticalAlign=middle;resizable=0;points=[];" vertex="1" connectable="0" parent="NiBP0WeMa_dFV4ms7JBB-63">
          <mxGeometry x="-0.2729" y="1" relative="1" as="geometry">
            <mxPoint as="offset" />
          </mxGeometry>
        </mxCell>
        <mxCell id="NiBP0WeMa_dFV4ms7JBB-61" value="城市选择页面" style="swimlane;startSize=20;" vertex="1" parent="NiBP0WeMa_dFV4ms7JBB-56">
          <mxGeometry x="280" y="20" width="210" height="520" as="geometry">
            <mxRectangle x="280" y="20" width="30" height="520" as="alternateBounds" />
          </mxGeometry>
        </mxCell>
        <mxCell id="NiBP0WeMa_dFV4ms7JBB-62" value="选择城市组件" style="rounded=0;whiteSpace=wrap;html=1;" vertex="1" parent="NiBP0WeMa_dFV4ms7JBB-61">
          <mxGeometry x="82" y="42" width="100" height="35" as="geometry" />
        </mxCell>
        <mxCell id="NiBP0WeMa_dFV4ms7JBB-67" value="是否选择？" style="rhombus;whiteSpace=wrap;html=1;" vertex="1" parent="NiBP0WeMa_dFV4ms7JBB-61">
          <mxGeometry x="92" y="120" width="80" height="50" as="geometry" />
        </mxCell>
        <mxCell id="NiBP0WeMa_dFV4ms7JBB-68" value="" style="endArrow=classic;html=1;rounded=0;exitX=0.5;exitY=1;exitDx=0;exitDy=0;" edge="1" parent="NiBP0WeMa_dFV4ms7JBB-61" source="NiBP0WeMa_dFV4ms7JBB-62" target="NiBP0WeMa_dFV4ms7JBB-67">
          <mxGeometry width="50" height="50" relative="1" as="geometry">
            <mxPoint x="56" y="370" as="sourcePoint" />
            <mxPoint x="106" y="320" as="targetPoint" />
          </mxGeometry>
        </mxCell>
        <mxCell id="NiBP0WeMa_dFV4ms7JBB-65" value="" style="endArrow=classic;html=1;rounded=0;exitX=1;exitY=0.5;exitDx=0;exitDy=0;entryX=0;entryY=0.5;entryDx=0;entryDy=0;" edge="1" parent="NiBP0WeMa_dFV4ms7JBB-56" source="NiBP0WeMa_dFV4ms7JBB-60" target="NiBP0WeMa_dFV4ms7JBB-62">
          <mxGeometry width="50" height="50" relative="1" as="geometry">
            <mxPoint x="336" y="390" as="sourcePoint" />
            <mxPoint x="386" y="340" as="targetPoint" />
          </mxGeometry>
        </mxCell>
        <mxCell id="NiBP0WeMa_dFV4ms7JBB-66" value="显示" style="edgeLabel;html=1;align=center;verticalAlign=middle;resizable=0;points=[];" vertex="1" connectable="0" parent="NiBP0WeMa_dFV4ms7JBB-65">
          <mxGeometry x="0.2432" relative="1" as="geometry">
            <mxPoint y="1" as="offset" />
          </mxGeometry>
        </mxCell>
        <mxCell id="NiBP0WeMa_dFV4ms7JBB-87" value="预约页面" style="swimlane;" vertex="1" parent="NiBP0WeMa_dFV4ms7JBB-56">
          <mxGeometry x="490" y="20" width="190" height="520" as="geometry" />
        </mxCell>
        <mxCell id="NiBP0WeMa_dFV4ms7JBB-95" value="" style="edgeStyle=orthogonalEdgeStyle;rounded=0;orthogonalLoop=1;jettySize=auto;html=1;" edge="1" parent="NiBP0WeMa_dFV4ms7JBB-87" source="NiBP0WeMa_dFV4ms7JBB-91" target="NiBP0WeMa_dFV4ms7JBB-94">
          <mxGeometry relative="1" as="geometry" />
        </mxCell>
        <mxCell id="NiBP0WeMa_dFV4ms7JBB-91" value="预约信息录入" style="rounded=0;whiteSpace=wrap;html=1;" vertex="1" parent="NiBP0WeMa_dFV4ms7JBB-87">
          <mxGeometry x="54" y="125" width="120" height="40" as="geometry" />
        </mxCell>
        <mxCell id="NiBP0WeMa_dFV4ms7JBB-94" value="填写预约信息" style="whiteSpace=wrap;html=1;rounded=0;" vertex="1" parent="NiBP0WeMa_dFV4ms7JBB-87">
          <mxGeometry x="54" y="232" width="120" height="48" as="geometry" />
        </mxCell>
        <mxCell id="NiBP0WeMa_dFV4ms7JBB-89" value="" style="endArrow=classic;html=1;rounded=0;exitX=0.5;exitY=0.5;exitDx=0;exitDy=0;exitPerimeter=0;entryX=0;entryY=0.5;entryDx=0;entryDy=0;" edge="1" parent="NiBP0WeMa_dFV4ms7JBB-56" source="NiBP0WeMa_dFV4ms7JBB-88" target="NiBP0WeMa_dFV4ms7JBB-67">
          <mxGeometry width="50" height="50" relative="1" as="geometry">
            <mxPoint x="336" y="390" as="sourcePoint" />
            <mxPoint x="386" y="340" as="targetPoint" />
          </mxGeometry>
        </mxCell>
        <mxCell id="NiBP0WeMa_dFV4ms7JBB-90" value="" style="endArrow=classic;html=1;rounded=0;exitX=1;exitY=0.5;exitDx=0;exitDy=0;entryX=0;entryY=0.5;entryDx=0;entryDy=0;" edge="1" parent="NiBP0WeMa_dFV4ms7JBB-56" source="NiBP0WeMa_dFV4ms7JBB-67" target="NiBP0WeMa_dFV4ms7JBB-91">
          <mxGeometry width="50" height="50" relative="1" as="geometry">
            <mxPoint x="336" y="390" as="sourcePoint" />
            <mxPoint x="496" y="165" as="targetPoint" />
          </mxGeometry>
        </mxCell>
        <mxCell id="NiBP0WeMa_dFV4ms7JBB-93" value="是" style="edgeLabel;html=1;align=center;verticalAlign=middle;resizable=0;points=[];" vertex="1" connectable="0" parent="NiBP0WeMa_dFV4ms7JBB-90">
          <mxGeometry x="-0.6087" relative="1" as="geometry">
            <mxPoint as="offset" />
          </mxGeometry>
        </mxCell>
        <mxCell id="NiBP0WeMa_dFV4ms7JBB-97" value="" style="endArrow=classic;html=1;rounded=0;exitX=0.5;exitY=0.5;exitDx=0;exitDy=0;exitPerimeter=0;entryX=0;entryY=0.5;entryDx=0;entryDy=0;" edge="1" parent="NiBP0WeMa_dFV4ms7JBB-56" source="NiBP0WeMa_dFV4ms7JBB-96" target="NiBP0WeMa_dFV4ms7JBB-94">
          <mxGeometry width="50" height="50" relative="1" as="geometry">
            <mxPoint x="336" y="390" as="sourcePoint" />
            <mxPoint x="386" y="340" as="targetPoint" />
          </mxGeometry>
        </mxCell>
        <mxCell id="NiBP0WeMa_dFV4ms7JBB-69" value="" style="endArrow=classic;html=1;rounded=0;exitX=0.5;exitY=1;exitDx=0;exitDy=0;" edge="1" parent="1" source="NiBP0WeMa_dFV4ms7JBB-67">
          <mxGeometry width="50" height="50" relative="1" as="geometry">
            <mxPoint x="380" y="430" as="sourcePoint" />
            <mxPoint x="320" y="280" as="targetPoint" />
            <Array as="points">
              <mxPoint x="456" y="280" />
            </Array>
          </mxGeometry>
        </mxCell>
        <mxCell id="NiBP0WeMa_dFV4ms7JBB-71" value="否" style="edgeLabel;html=1;align=center;verticalAlign=middle;resizable=0;points=[];" vertex="1" connectable="0" parent="NiBP0WeMa_dFV4ms7JBB-69">
          <mxGeometry x="-0.8387" y="1" relative="1" as="geometry">
            <mxPoint as="offset" />
          </mxGeometry>
        </mxCell>
      </root>
    </mxGraphModel>
  </diagram>
</mxfile>
